<svg width="100" height="106" viewBox="0 0 100 106" fill="none" xmlns="http://www.w3.org/2000/svg">
<path d="M67.979 80.6773C59.3151 85.2478 19.2934 91.0108 19.2934 91.0108C19.2934 91.0108 49.4122 89.4205 67.567 86.8381C85.7208 84.2547 95.6227 62.5946 95.6227 62.5946L6.09043 72.3319L85.7208 68.9538C85.7208 68.9538 76.6439 76.1068 67.979 80.6773Z" fill="#163152"/>
<path d="M50.8562 6.88837C72.1736 39.1466 52.0941 60.6735 52.0941 60.6735C66.123 36.0331 50.8562 6.88837 50.8562 6.88837ZM46.0903 64.3833L85.8691 60.0294C85.8691 60.0294 95.4943 20.1619 43.8424 0C43.8424 0 63.8242 36.2009 46.0903 64.3833Z" fill="#163152"/>
<path d="M18.4681 64.3832C32.7025 47.8899 40.7481 16.4934 40.7481 16.4934C37.6538 48.0883 18.4681 64.3832 18.4681 64.3832ZM42.1923 4.96734C42.1923 4.96734 32.29 42.5246 13.5168 67.9597L43.8425 64.3832L42.1923 4.96734Z" fill="#163152"/>
<path d="M38.0663 74.3189L6.09043 76.8026L7.12172 79.2863L38.0663 74.3189Z" fill="#163152"/>
<path d="M34.3531 81.8698L10.1129 85.8249L11.1447 88.3095L34.3531 81.8698Z" fill="#163152"/>
<path d="M8.35944 81.77L9.39123 84.2546L43.8425 76.8026L8.35944 81.77Z" fill="#163152"/>
<path d="M11.6732 96.314H11.4564C11.1673 96.314 10.8894 96.389 10.6226 96.5389C10.3669 96.6888 10.1557 96.8762 9.98891 97.1011L7.02059 101.502V104.779C7.03171 105.015 7.1262 105.218 7.30408 105.39C7.48196 105.55 7.7043 105.631 7.97112 105.631H8.15456V105.791H3.48528V105.631H3.68539C3.94109 105.631 4.15788 105.55 4.33576 105.39C4.51363 105.218 4.60813 105.015 4.61925 104.779V101.502L1.6676 97.1011C1.51196 96.8655 1.30073 96.6781 1.03391 96.5389C0.778212 96.389 0.500279 96.314 0.200112 96.314H0V96.1534H5.0695V96.314H4.88606C4.67483 96.314 4.51919 96.3836 4.41914 96.5228C4.3302 96.6513 4.28573 96.7638 4.28573 96.8602C4.28573 96.9458 4.30796 97.0261 4.35243 97.1011L6.57034 100.796L8.82159 97.1011C8.85495 97.0261 8.87162 96.9458 8.87162 96.8602C8.87162 96.7638 8.8216 96.6513 8.72154 96.5228C8.6326 96.3836 8.48252 96.314 8.27129 96.314H8.10453V96.1534H11.6732V96.314Z" fill="#163152"/>
<path d="M20.889 105.631H21.0224V105.791H16.1197V105.631H16.2531C16.4754 105.631 16.6366 105.566 16.7367 105.438C16.8367 105.309 16.8868 105.192 16.8868 105.084C16.8868 104.977 16.8645 104.865 16.8201 104.747L16.1697 103.269H12.6344L11.9674 104.763C11.9229 104.87 11.9007 104.983 11.9007 105.1C11.9007 105.208 11.9507 105.325 12.0507 105.454C12.1619 105.572 12.3287 105.631 12.551 105.631H12.6844V105.791H9.34923V105.631H9.48264C9.7161 105.631 9.94957 105.561 10.183 105.422C10.4165 105.283 10.6055 105.074 10.75 104.795L14.2019 97.6633C14.6911 96.6031 14.9468 95.9499 14.969 95.7036H15.1191L19.5883 104.731C19.7328 105.042 19.9218 105.272 20.1553 105.422C20.3999 105.561 20.6444 105.631 20.889 105.631ZM12.9179 102.643H15.8862L14.4187 99.2857L12.9179 102.643Z" fill="#163152"/>
<path d="M26.8408 106C24.9731 105.989 23.5056 105.545 22.4383 104.667C21.3711 103.778 20.8374 102.546 20.8374 100.972C20.8374 99.3981 21.3655 98.1666 22.4216 97.2778C23.4889 96.389 24.9619 95.9446 26.8408 95.9446C28.3083 95.9446 29.559 96.1909 30.5929 96.6835V99.2375H30.4761C30.1982 98.2844 29.7702 97.6044 29.1921 97.1975C28.614 96.7906 27.8858 96.5871 27.0075 96.5871C25.8291 96.5871 24.9286 96.978 24.306 97.7597C23.6835 98.5307 23.3722 99.5909 23.3722 100.94C23.3722 102.279 23.6779 103.344 24.2893 104.137C24.923 104.951 25.7846 105.357 26.8741 105.357C27.6635 105.357 28.3138 105.24 28.8252 105.004C29.3366 104.769 29.7424 104.394 30.0426 103.88C30.3427 103.355 30.5651 102.648 30.7096 101.759H30.8263L31.0264 104.185C30.6818 104.731 30.1537 105.17 29.4422 105.502C28.7418 105.834 27.8747 106 26.8408 106Z" fill="#163152"/>
<path d="M43.4107 105.631H43.5941V105.791H39.0082V105.631H39.175C39.4307 105.631 39.6475 105.55 39.8254 105.39C40.0033 105.229 40.0922 105.026 40.0922 104.779V101.31H35.7064V104.779C35.7175 105.026 35.812 105.229 35.9899 105.39C36.1678 105.55 36.379 105.631 36.6236 105.631H36.807V105.791H32.2044V105.631H32.3879C32.6436 105.631 32.8604 105.55 33.0382 105.39C33.2161 105.218 33.3051 105.015 33.3051 104.779V97.1654C33.3051 96.9298 33.2161 96.7317 33.0382 96.571C32.8604 96.3997 32.6436 96.314 32.3879 96.314H32.2044V96.1534H36.807V96.314H36.6236C36.379 96.314 36.1678 96.3943 35.9899 96.555C35.812 96.7156 35.7175 96.9137 35.7064 97.1493V100.667H40.0922V97.1654C40.0922 96.8334 39.9421 96.5871 39.6419 96.4265C39.4974 96.3515 39.3418 96.314 39.175 96.314H39.0082V96.1534H43.5941V96.314H43.4107C43.1661 96.314 42.9549 96.3943 42.777 96.555C42.5991 96.7156 42.5046 96.9191 42.4935 97.1654V104.795C42.5046 105.127 42.6547 105.368 42.9438 105.518C43.0883 105.593 43.2439 105.631 43.4107 105.631Z" fill="#163152"/>
<path d="M53.7998 98.4343V98.2898C53.7998 97.8293 53.6664 97.4652 53.3996 97.1975C53.1328 96.9298 52.7604 96.7906 52.2823 96.7798H50.3479V104.795C50.359 105.031 50.4535 105.229 50.6314 105.39C50.8093 105.55 51.0205 105.631 51.2651 105.631H51.4485V105.791H46.846V105.631H47.0127C47.2684 105.631 47.4852 105.55 47.6631 105.39C47.841 105.229 47.9299 105.026 47.9299 104.779V96.7798H46.0122C45.523 96.7906 45.145 96.9298 44.8782 97.1975C44.6114 97.4652 44.478 97.8293 44.478 98.2898V98.4343H44.3112V95.8964C44.4669 95.9499 44.7225 96.0035 45.0783 96.057C45.4452 96.1106 45.7731 96.1373 46.0622 96.1373H52.2156C52.7048 96.1373 53.105 96.1052 53.4163 96.0409C53.7387 95.966 53.9221 95.9178 53.9666 95.8964V98.4343H53.7998Z" fill="#163152"/>
<path d="M64.8666 106C62.9989 105.989 61.5314 105.545 60.4641 104.667C59.3969 103.778 58.8632 102.546 58.8632 100.972C58.8632 99.3981 59.3913 98.1666 60.4474 97.2778C61.5147 96.389 62.9877 95.9446 64.8666 95.9446C66.3341 95.9446 67.5847 96.1909 68.6187 96.6835V99.2375H68.5019C68.224 98.2844 67.796 97.6044 67.2179 97.1975C66.6398 96.7906 65.9116 96.5871 65.0333 96.5871C63.8549 96.5871 62.9544 96.978 62.3318 97.7597C61.7093 98.5307 61.398 99.5909 61.398 100.94C61.398 102.279 61.7037 103.344 62.3151 104.137C62.9488 104.951 63.8104 105.357 64.8999 105.357C65.6893 105.357 66.3396 105.24 66.851 105.004C67.3624 104.769 67.7682 104.394 68.0684 103.88C68.3685 103.355 68.5909 102.648 68.7354 101.759H68.8521L69.0522 104.185C68.7076 104.731 68.1795 105.17 67.468 105.502C66.7676 105.834 65.9005 106 64.8666 106Z" fill="#163152"/>
<path d="M70.2302 105.791V105.631H70.4304C70.6861 105.631 70.8973 105.55 71.064 105.39C71.2419 105.229 71.3309 105.031 71.3309 104.795V97.1654C71.3309 96.9298 71.2419 96.7317 71.064 96.571C70.8862 96.3997 70.6749 96.314 70.4304 96.314H70.2302V96.1534H74.8662V96.314H74.6661C74.4104 96.314 74.1936 96.3943 74.0157 96.555C73.8378 96.7156 73.7489 96.9191 73.7489 97.1654V105.149H75.75C76.4393 105.138 77.0229 104.934 77.501 104.538C77.979 104.131 78.3292 103.564 78.5516 102.836H78.735L78.0846 105.791H70.2302Z" fill="#163152"/>
<path d="M90.0594 96.314H89.826C89.6147 96.314 89.4369 96.3783 89.2923 96.5068C89.1478 96.6246 89.07 96.7799 89.0589 96.9726V102.289C89.0589 103.446 88.692 104.356 87.9582 105.02C87.2245 105.673 86.1294 106 84.6731 106C83.2278 106 82.0994 105.679 81.2878 105.036C80.4874 104.394 80.0872 103.489 80.0872 102.322V96.9887C80.0872 96.7959 80.0094 96.6353 79.8537 96.5068C79.7092 96.3783 79.5313 96.314 79.3201 96.314H79.0866V96.1534H83.4724V96.314H83.2389C83.0277 96.314 82.8498 96.3783 82.7053 96.5068C82.5608 96.6353 82.4885 96.7959 82.4885 96.9887V102.209C82.4885 103.194 82.722 103.965 83.1889 104.522C83.667 105.079 84.334 105.357 85.19 105.357C86.0461 105.357 86.7187 105.095 87.2078 104.57C87.7081 104.046 87.9582 103.317 87.9582 102.386V96.9887C87.9471 96.7852 87.8693 96.6246 87.7248 96.5068C87.5803 96.3783 87.4024 96.314 87.1911 96.314H86.9744V96.1534H90.0594V96.314Z" fill="#163152"/>
<path d="M99.2162 98.5468C99.2162 98.943 99.1273 99.291 98.9494 99.5909C98.6048 100.169 98.0823 100.485 97.3819 100.539C98.1267 100.592 98.7493 100.849 99.2496 101.31C99.7499 101.759 100 102.338 100 103.044C100 104.426 99.1384 105.293 97.4152 105.647C96.9261 105.743 96.3924 105.791 95.8143 105.791H90.9783V105.631H91.1617C91.4174 105.631 91.6286 105.55 91.7954 105.39C91.9733 105.229 92.0678 105.026 92.0789 104.779V97.1654C92.0678 96.7798 91.8788 96.5175 91.5119 96.3783C91.4007 96.3354 91.284 96.314 91.1617 96.314H90.9783V96.1534H95.4474C97.96 96.1534 99.2162 96.9512 99.2162 98.5468ZM97.2985 102.9C97.2985 102.407 97.1929 101.995 96.9816 101.663C96.5925 101.02 95.9199 100.699 94.9639 100.699C94.9527 100.699 94.9416 100.699 94.9305 100.699V100.555C95.4641 100.555 95.8977 100.405 96.2312 100.105C96.5647 99.805 96.7315 99.3392 96.7315 98.7074C96.7315 97.4224 96.1256 96.7798 94.9138 96.7798H94.4469V105.149H95.1139C95.7587 105.149 96.2812 104.967 96.6815 104.603C97.0928 104.238 97.2985 103.671 97.2985 102.9Z" fill="#163152"/>
</svg>
